<?xml version="1.0" encoding="utf-8"?>
<!-- Generator: Adobe Illustrator 16.0.0, SVG Export Plug-In . SVG Version: 6.00 Build 0)  -->
<!DOCTYPE svg PUBLIC "-//W3C//DTD SVG 1.1//EN" "http://www.w3.org/Graphics/SVG/1.1/DTD/svg11.dtd">
<svg version="1.1" id="Layer_1" xmlns="http://www.w3.org/2000/svg" xmlns:xlink="http://www.w3.org/1999/xlink" x="0px" y="0px"
	 width="58.25px" height="75.25px" viewBox="0 0 58.25 75.25" enable-background="new 0 0 58.25 75.25" xml:space="preserve">
<g>
	
		<ellipse transform="matrix(0.854 -0.5202 0.5202 0.854 -9.6046 21.4347)" fill="none" stroke="#000000" stroke-width="5" stroke-miterlimit="10" cx="33.392" cy="27.832" rx="20.833" ry="21.501"/>
	<path fill="none" stroke="#000000" stroke-width="5" stroke-miterlimit="10" d="M43.826,22.211
		c5.819,9.555,6.204,19.938,0.855,23.195c-5.345,3.257-14.396-1.849-20.214-11.403c-5.821-9.554-6.206-19.938-0.86-23.195
		C28.954,7.551,38.005,12.658,43.826,22.211z"/>
	<line fill="none" stroke="#000000" stroke-width="5" stroke-miterlimit="10" x1="15.487" y1="39.127" x2="51.357" y2="17.277"/>
	<line fill="none" stroke="#000000" stroke-width="5" stroke-miterlimit="10" x1="22.199" y1="46.048" x2="54.695" y2="26.109"/>
	<line fill="none" stroke="#000000" stroke-width="5" stroke-miterlimit="10" x1="11.46" y1="30.342" x2="43.956" y2="10.403"/>
</g>
<path fill="none" stroke="#000000" stroke-width="5" stroke-linecap="round" stroke-miterlimit="10" d="M17.75,2.75
	c-35.5,26.853,4.449,71.334,32.167,49"/>
<line fill="none" stroke="#000000" stroke-width="5" stroke-linecap="round" stroke-miterlimit="10" x1="33.75" y1="57.75" x2="33.75" y2="67.75"/>
<polygon fill="none" stroke="#000000" stroke-width="5" stroke-linecap="round" stroke-linejoin="round" stroke-miterlimit="10" points="
	24,73.25 44.25,73.25 34.146,69.5 "/>
</svg>
