<?xml version="1.0" encoding="utf-8"?>
<!-- Generator: Adobe Illustrator 16.0.0, SVG Export Plug-In . SVG Version: 6.00 Build 0)  -->
<!DOCTYPE svg PUBLIC "-//W3C//DTD SVG 1.1//EN" "http://www.w3.org/Graphics/SVG/1.1/DTD/svg11.dtd">
<svg version="1.1" id="Layer_1" xmlns="http://www.w3.org/2000/svg" xmlns:xlink="http://www.w3.org/1999/xlink" x="0px" y="0px"
	 width="273.667px" height="72.667px" viewBox="16.7 18.286 273.667 72.667" enable-background="new 16.7 18.286 273.667 72.667"
	 xml:space="preserve">
<text transform="matrix(1 0 0 1 123.7 74.2522)" fill="#FFFFFF" font-family="'Nilland-ExtraBold'" font-size="54" letter-spacing="1">Sightly</text>
<path fill="#808080" d="M106.4,76.405c0,6.628-5.373,12-12,12h-60c-6.627,0-12-5.372-12-12V44.406c0-6.628,5.373-12,12-12h60
	c6.627,0,12,5.372,12,12V76.405z"/>
<g>
	<path fill="#808080" d="M84.4,36.406c0,2.761-2.239,5-5,5h-31c-2.761,0-5-2.239-5-5v-10c0-2.762,2.239-5,5-5h31
		c2.761,0,5,2.238,5,5V36.406z"/>
</g>
<circle fill="#FFFFFF" cx="64.949" cy="63.512" r="17.617"/>
<circle fill="#808080" cx="64.949" cy="63.512" r="13.739"/>
<path fill="#FFFFFF" d="M100.4,44.021c0,1.869-1.516,3.383-3.383,3.383H83.783c-1.868,0-3.383-1.515-3.383-3.383v-0.232
	c0-1.869,1.515-3.383,3.383-3.383h13.234c1.867,0,3.383,1.515,3.383,3.383V44.021z"/>
</svg>
