<?xml version="1.0" encoding="utf-8"?>
<!-- Generator: Adobe Illustrator 16.0.0, SVG Export Plug-In . SVG Version: 6.00 Build 0)  -->
<!DOCTYPE svg PUBLIC "-//W3C//DTD SVG 1.1//EN" "http://www.w3.org/Graphics/SVG/1.1/DTD/svg11.dtd">
<svg version="1.1" id="Layer_1" xmlns="http://www.w3.org/2000/svg" xmlns:xlink="http://www.w3.org/1999/xlink" x="0px" y="0px"
	 width="67px" height="63.254px" viewBox="0 0 67 63.254" enable-background="new 0 0 67 63.254" xml:space="preserve">
<path d="M36.25,50.959L21,60.459l-18.5-7.5l2.25-25.75c0,0,4.903,1.374,5.75,3.607c1.156,3.047,6.727-0.587,8.5,7.393
	c1.25,5.625,8.75,4.25,11.75,2.25s16.9,0.389,14.75,8s5.25,11.727,5.25,9.488"/>
<ellipse cx="35.5" cy="11.292" rx="9.5" ry="9.167"/>
<polygon points="27.225,15.459 35.729,34.362 43.93,15.459 "/>
<circle fill="#FFFFFF" cx="35.833" cy="10.96" r="5.167"/>
<g>
	<path d="M49.111,8.519L48.055,7.65c0.369,1.205,0.57,2.483,0.57,3.81c0,0.986-0.119,1.942-0.327,2.866l0.091,0.075L62,7.919v43.212
		l-12.97,5.949l-12.68-9.129l-15.591,9.713L5,51.275V8.39l16.222,6.5l1.616-1.145c-0.132-0.743-0.213-1.504-0.213-2.285
		c0-1.469,0.255-2.875,0.704-4.191l-2.775,1.967L0,1v53.644l21.241,8.61l14.909-9.287l12.32,8.871l18.53-8.5V0L49.111,8.519z"/>
</g>
</svg>
