<?xml version="1.0" encoding="utf-8"?>
<!-- Generator: Adobe Illustrator 16.0.0, SVG Export Plug-In . SVG Version: 6.00 Build 0)  -->
<!DOCTYPE svg PUBLIC "-//W3C//DTD SVG 1.1//EN" "http://www.w3.org/Graphics/SVG/1.1/DTD/svg11.dtd">
<svg version="1.1" id="Layer_1" xmlns="http://www.w3.org/2000/svg" xmlns:xlink="http://www.w3.org/1999/xlink" x="0px" y="0px"
	 width="25.898px" height="34.708px" viewBox="0 0 25.898 34.708" enable-background="new 0 0 25.898 34.708" xml:space="preserve">
<g>
	<g>
		<g>
			<defs>
				<rect id="SVGID_1_" x="0" width="25.898" height="36.4"/>
			</defs>
			<clipPath id="SVGID_2_">
				<use xlink:href="#SVGID_1_"  overflow="visible"/>
			</clipPath>
			<g clip-path="url(#SVGID_2_)">
				
					<image overflow="visible" enable-background="new    " width="39" height="54" xlink:href="DF4F4F92D80D5FD9.png"  transform="matrix(0.6707 0 0 0.6707 -0.1272 0.0923)">
				</image>
			</g>
		</g>
	</g>
	<g>
		<g>
			<defs>
				<rect id="SVGID_3_" x="-168.701" y="-403.2" width="716.8" height="592.9"/>
			</defs>
			<clipPath id="SVGID_4_">
				<use xlink:href="#SVGID_3_"  overflow="visible"/>
			</clipPath>
			<g clip-path="url(#SVGID_4_)">
				<g>
					<defs>
						<path id="SVGID_5_" d="M3.203,13.993L3.13,13.995l0.168,0.299c0.396,1.191,1.014,2.28,1.805,3.218l8.145,14.521l7.086-14.812
							c1.295-1.662,2.066-3.751,2.066-6.022c0-5.413-4.388-9.8-9.8-9.8s-9.801,4.387-9.801,9.8
							C2.799,12.17,2.94,13.108,3.203,13.993z"/>
					</defs>
					<clipPath id="SVGID_6_">
						<use xlink:href="#SVGID_5_"  overflow="visible"/>
					</clipPath>
					<rect x="-0.701" y="-2.1" clip-path="url(#SVGID_6_)" fill="#4A90E2" width="26.601" height="37.634"/>
				</g>
			</g>
			<g clip-path="url(#SVGID_4_)">
				<g>
					<defs>
						<rect id="SVGID_7_" x="-168.701" y="-403.2" width="716.8" height="592.9"/>
					</defs>
					<clipPath id="SVGID_8_">
						<use xlink:href="#SVGID_7_"  overflow="visible"/>
					</clipPath>
					<g clip-path="url(#SVGID_8_)">
						<g>
							<defs>
								<circle id="SVGID_9_" cx="12.6" cy="11.2" r="6.3"/>
							</defs>
							<clipPath id="SVGID_10_">
								<use xlink:href="#SVGID_9_"  overflow="visible"/>
							</clipPath>
							<rect x="2.799" y="1.4" clip-path="url(#SVGID_10_)" fill="#FFFFFF" width="19.601" height="19.601"/>
						</g>
					</g>
					<g clip-path="url(#SVGID_8_)">
						<g>
							<defs>
								<rect id="SVGID_11_" x="6.299" y="4.9" width="12.601" height="12.6"/>
							</defs>
							<clipPath id="SVGID_12_">
								<use xlink:href="#SVGID_11_"  overflow="visible"/>
							</clipPath>
							<g clip-path="url(#SVGID_12_)">
								
									<image overflow="visible" enable-background="new    " width="19" height="20" xlink:href="DF4F4F92D80D5FDF.png"  transform="matrix(0.6459 0 0 0.6459 6.4631 4.7407)">
								</image>
							</g>
						</g>
					</g>
					<g clip-path="url(#SVGID_8_)">
						<g>
							<defs>
								<rect id="SVGID_13_" x="-168.701" y="-403.2" width="716.8" height="592.9"/>
							</defs>
							<clipPath id="SVGID_14_">
								<use xlink:href="#SVGID_13_"  overflow="visible"/>
							</clipPath>
							<g clip-path="url(#SVGID_14_)">
								<g>
									<defs>
										<circle id="SVGID_15_" cx="12.6" cy="11.2" r="6.3"/>
									</defs>
									<clipPath id="SVGID_16_">
										<use xlink:href="#SVGID_15_"  overflow="visible"/>
									</clipPath>
									<path clip-path="url(#SVGID_16_)" fill="#FF2600" d="M-54.601,17.5c3.479,0,6.301-2.821,6.301-6.3s-2.82-6.3-6.301-6.3
										c-3.479,0-6.3,2.82-6.3,6.3S-58.08,17.5-54.601,17.5z M-69.301-3.5h33.6v34.299h-33.6V-3.5z"/>
								</g>
							</g>
						</g>
					</g>
				</g>
			</g>
		</g>
	</g>
</g>
</svg>
