<?xml version="1.0" encoding="utf-8"?>
<!-- Generator: Adobe Illustrator 16.0.0, SVG Export Plug-In . SVG Version: 6.00 Build 0)  -->
<!DOCTYPE svg PUBLIC "-//W3C//DTD SVG 1.1//EN" "http://www.w3.org/Graphics/SVG/1.1/DTD/svg11.dtd">
<svg version="1.1" id="Layer_1" xmlns="http://www.w3.org/2000/svg" xmlns:xlink="http://www.w3.org/1999/xlink" x="0px" y="0px"
	 width="85.4px" height="67.404px" viewBox="0 0 85.4 67.404" enable-background="new 0 0 85.4 67.404" xml:space="preserve">
<circle fill="#FFFFFF" cx="43.949" cy="42.512" r="13.74"/>
<path fill="#FFFFFF" d="M73.4,11H63V5.406C63,2.644,61.161,0,58.4,0h-31C24.639,0,22,2.644,22,5.406V11h-8.6
	C6.773,11,1,16.778,1,23.406v31.999C1,62.033,6.773,67,13.4,67h60C80.027,67,85,62.033,85,55.404V23.406
	C85,16.778,80.027,11,73.4,11z M43.949,60.129c-9.73,0-17.617-7.887-17.617-17.617c0-9.729,7.887-17.617,17.617-17.617
	c9.729,0,17.617,7.888,17.617,17.617C61.566,52.242,53.679,60.129,43.949,60.129z M79,23.021C79,24.89,77.884,26,76.018,26H62.783
	C60.915,26,59,24.889,59,23.021v-0.232C59,20.919,60.915,19,62.783,19h13.234C77.884,19,79,20.921,79,22.789V23.021z"/>
</svg>
